<svg width="140" height="100" viewBox="0 0 140 100" fill="none" xmlns="http://www.w3.org/2000/svg">
<path d="M15 70C35 45 55 80 75 55C95 30 110 50 125 35" stroke="#064C86" stroke-width="3" stroke-linecap="round" stroke-dasharray="6 6"/>
<path d="M15 76C18.3137 76 21 73.3137 21 70C21 66.6863 18.3137 64 15 64C11.6863 64 9 66.6863 9 70C9 73.3137 11.6863 76 15 76Z" fill="#064C86"/>
<path d="M125 41C128.314 41 131 38.3137 131 35C131 31.6863 128.314 29 125 29C121.686 29 119 31.6863 119 35C119 38.3137 121.686 41 125 41Z" fill="#0B7F1A"/>
<path d="M137 13.75C137 21.9652 126.067 35 125 35C123.933 35 113 21.9652 113 13.75C113 5.53476 119.551 1 125 1C130.449 1 137 5.53476 137 13.75Z" fill="#064C86"/>
<path d="M125 17C127.209 17 129 15.2091 129 13C129 10.7909 127.209 9 125 9C122.791 9 121 10.7909 121 13C121 15.2091 122.791 17 125 17Z" fill="#0B7F1A"/>
<path d="M27 47.75C27 55.9652 16.0667 69 15 69C13.9333 69 3 55.9652 3 47.75C3 39.5348 9.55077 35 15 35C20.4492 35 27 39.5348 27 47.75Z" fill="#0B7F1A"/>
<path d="M15 51C17.2091 51 19 49.2091 19 47C19 44.7909 17.2091 43 15 43C12.7909 43 11 44.7909 11 47C11 49.2091 12.7909 51 15 51Z" fill="#064C86"/>
</svg>
