<svg width="320" height="200" viewBox="0 0 320 200" fill="none" xmlns="http://www.w3.org/2000/svg">
<g clip-path="url(#clip0_35_525)">
<path d="M260 110C298.66 110 330 78.6599 330 40C330 1.34007 298.66 -30 260 -30C221.34 -30 190 1.34007 190 40C190 78.6599 221.34 110 260 110Z" fill="white" fill-opacity="0.08"/>
<path d="M60 250C109.706 250 150 209.706 150 160C150 110.294 109.706 70 60 70C10.2944 70 -30 110.294 -30 160C-30 209.706 10.2944 250 60 250Z" fill="white" fill-opacity="0.06"/>
<path d="M0 120C50 90 120 140 180 110C240 80 280 100 320 85V200H0V120Z" fill="white" fill-opacity="0.1"/>
<path d="M40 60L80 45L120 70L160 50L200 65" stroke="white" stroke-opacity="0.25" stroke-width="2" stroke-linecap="round" stroke-dasharray="6 8"/>
<g filter="url(#filter0_d_35_525)">
<path d="M147 21.0001C150.531 21.2015 152.526 21.3411 156 22.0001C162.067 23.1506 165.173 24.9578 171 27.0001C191.327 34.1239 222 48.0001 222 48.0001C222 48.0001 245 57.5 243.5 59C242 60.5 240.5 61.5 239.5 61C238.5 60.5 230.5 57 230 57.5C229.5 58 229.5 65.5001 229.5 65.5001C229.5 65.5001 228.5 69.0001 228.5 65.5001C228.5 62 229 59 227 57C225 55 214.5 52 214.5 52V74.5001L212.5 75.0001V52.5001L211 51.0001L196.5 46.0001V74.5001L198 76.0001L205 77.0001L211.5 78.0001L206.5 78.5001L172 90.0001C154.725 98.454 159.293 120.673 147.5 128C136.789 134.655 69.8017 133.104 65.5002 124.5C63.8877 121.275 63.8944 112.38 64.5002 112.5C68.4459 113.28 72.4567 113.615 76.5002 114C75.2165 106.924 70.2854 106.514 65.5002 102.5C62.8833 100.305 72.5002 55.5001 72.5002 55.5001C70.9002 53.7667 68.0669 53.2667 64.0002 54.0001C59.9335 54.7334 62.2918 55.9886 62.5002 56.5001C63.6908 59.4226 64.0952 61.8557 63.5002 65.5001C63.309 66.671 62.6286 71.648 61.0002 72.0001C53.1238 73.7031 54.9332 59.1467 57.5002 55.5001C61.3148 50.081 67.5795 50.6844 73.5002 52.0001C74.3002 45.8667 76.8002 41.2001 81.0002 38.0001C101.769 30.7761 124.726 19.7294 147 21.0001ZM148.5 31.0001C146.5 32 144.5 36.0001 144.5 40.0001C147.681 41.5902 153.5 42.0001 155 42.5001C156.277 42.9257 155.5 46.0001 155.5 46.0001C155.5 46.0001 131.56 39.207 133.5 46.0001C134.5 49.5001 135.895 44.8766 137.5 45.0001C139.771 45.1747 141.641 45.8912 142.5 48.0001C143.432 50.2874 141.152 51.6176 140.5 54.0001C139.145 58.9547 138.5 67.0001 138.5 67.0001L137.5 76.0001C137.5 76.0001 136 86.0001 137.5 87.0001C139 88.0001 141.127 88.0978 143.5 88.0001C148.921 87.7767 155.5 81.0001 155.5 81.0001C158.834 78.3334 161.5 74.6667 163.5 70.0001C163.5 70.0001 174.5 41.0001 173.5 39.0001C172.5 37.0001 162.519 31.7142 154.5 31.0001C152.166 30.7922 150.5 30.0001 148.5 31.0001ZM77.5002 47.5001C75.2502 52.0001 67.5002 86.5 67.5002 93.0001C67.5002 101.912 126.696 92.9745 130.5 86.0001C133.5 80.5001 132.5 67.0001 132.5 67.0001C129.834 67.6667 128.167 67.3334 127.5 66.0001C126.167 55.3334 127.167 47.3334 130.5 42.0001C131.625 38.9065 138.335 39.2529 137.5 38.0001C130.678 27.7661 81.8966 38.7073 77.5002 47.5001ZM179.5 40.0001C176 40.5001 169.5 67.5001 169.5 70.0001C169.5 73.0001 193.5 75.0001 193.5 75.0001L194.5 74.0001V47.0001L192.5 44.0001C192.5 44.0001 183 39.5001 179.5 40.0001ZM127.5 100L115.5 106C112.167 108 110.167 110.667 109.5 114C108.834 117.333 119.216 114.939 123.5 113C127.784 111.061 132.5 105 132.5 105C133.834 99.6667 132.167 98.0001 127.5 100Z" fill="#223260"/>
<path d="M147 21.0001C150.531 21.2015 152.526 21.3411 156 22.0001C162.067 23.1506 165.173 24.9578 171 27.0001C191.327 34.1239 222 48.0001 222 48.0001C222 48.0001 245 57.5 243.5 59C242 60.5 240.5 61.5 239.5 61C238.5 60.5 230.5 57 230 57.5C229.5 58 229.5 65.5001 229.5 65.5001C229.5 65.5001 228.5 69.0001 228.5 65.5001C228.5 62 229 59 227 57C225 55 214.5 52 214.5 52V74.5001L212.5 75.0001V52.5001L211 51.0001L196.5 46.0001V74.5001L198 76.0001L205 77.0001L211.5 78.0001L206.5 78.5001L172 90.0001C154.725 98.454 159.293 120.673 147.5 128C136.789 134.655 69.8017 133.104 65.5002 124.5C63.8877 121.275 63.8944 112.38 64.5002 112.5C68.4459 113.28 72.4567 113.615 76.5002 114C75.2165 106.924 70.2854 106.514 65.5002 102.5C62.8833 100.305 72.5002 55.5001 72.5002 55.5001C70.9002 53.7667 68.0669 53.2667 64.0002 54.0001C59.9335 54.7334 62.2918 55.9886 62.5002 56.5001C63.6908 59.4226 64.0952 61.8557 63.5002 65.5001C63.309 66.671 62.6286 71.648 61.0002 72.0001C53.1238 73.7031 54.9332 59.1467 57.5002 55.5001C61.3148 50.081 67.5795 50.6844 73.5002 52.0001C74.3002 45.8667 76.8002 41.2001 81.0002 38.0001C101.769 30.7761 124.726 19.7294 147 21.0001ZM148.5 31.0001C146.5 32 144.5 36.0001 144.5 40.0001C147.681 41.5902 153.5 42.0001 155 42.5001C156.277 42.9257 155.5 46.0001 155.5 46.0001C155.5 46.0001 131.56 39.207 133.5 46.0001C134.5 49.5001 135.895 44.8766 137.5 45.0001C139.771 45.1747 141.641 45.8912 142.5 48.0001C143.432 50.2874 141.152 51.6176 140.5 54.0001C139.145 58.9547 138.5 67.0001 138.5 67.0001L137.5 76.0001C137.5 76.0001 136 86.0001 137.5 87.0001C139 88.0001 141.127 88.0978 143.5 88.0001C148.921 87.7767 155.5 81.0001 155.5 81.0001C158.834 78.3334 161.5 74.6667 163.5 70.0001C163.5 70.0001 174.5 41.0001 173.5 39.0001C172.5 37.0001 162.519 31.7142 154.5 31.0001C152.166 30.7922 150.5 30.0001 148.5 31.0001ZM77.5002 47.5001C75.2502 52.0001 67.5002 86.5 67.5002 93.0001C67.5002 101.912 126.696 92.9745 130.5 86.0001C133.5 80.5001 132.5 67.0001 132.5 67.0001C129.834 67.6667 128.167 67.3334 127.5 66.0001C126.167 55.3334 127.167 47.3334 130.5 42.0001C131.625 38.9065 138.335 39.2529 137.5 38.0001C130.678 27.7661 81.8966 38.7073 77.5002 47.5001ZM179.5 40.0001C176 40.5001 169.5 67.5001 169.5 70.0001C169.5 73.0001 193.5 75.0001 193.5 75.0001L194.5 74.0001V47.0001L192.5 44.0001C192.5 44.0001 183 39.5001 179.5 40.0001ZM127.5 100L115.5 106C112.167 108 110.167 110.667 109.5 114C108.834 117.333 119.216 114.939 123.5 113C127.784 111.061 132.5 105 132.5 105C133.834 99.6667 132.167 98.0001 127.5 100Z" stroke="#223260"/>
</g>
<g filter="url(#filter1_d_35_525)">
<path d="M253.5 68.5C260.088 82.3536 264.171 108.569 254 121L247.5 122C247.56 118.201 247.389 103.592 241 104C231.489 104.607 231.5 116.779 231.5 124L187.5 126C188.636 116.365 185.739 93.81 171 98.0001C159.647 101.228 158.49 118.37 159.5 128H148C152.89 111.013 161 98.0001 171 91.5C181 84.9999 200.482 77.5484 212.5 78.0001L212.5 74.6001L214.5 73.5001C214.5 73.5001 214.5 76.7427 214.5 78.5001C214.5 79.5001 225.946 80.0002 227 80.0002C229 80.0002 228.5 65.8501 228.5 65.8501L229.5 65.5002C229.5 65.5002 228.855 78.8549 230 80.0002C231.145 81.1455 240.5 82.4999 241.5 81.5C242.5 80.5001 242.5 66.5004 242.5 64.5002C242.5 62.5 238.5 60.5 238.5 60.5L243.5 58.5C243.5 58.5 251.167 63.5939 253.5 68.5ZM244 63.5C242.5 64 242.6 81.5001 243 82.0002C243.4 82.5003 249.5 83.4999 250.5 83C251.5 82.5001 251.666 69 250.5 67.5001C249.334 66.0002 245.5 63 244 63.5Z" fill="#378350"/>
<path d="M253.5 68.5C260.088 82.3536 264.171 108.569 254 121L247.5 122C247.56 118.201 247.389 103.592 241 104C231.489 104.607 231.5 116.779 231.5 124L187.5 126C188.636 116.365 185.739 93.81 171 98.0001C159.647 101.228 158.49 118.37 159.5 128H148C152.89 111.013 161 98.0001 171 91.5C181 84.9999 200.482 77.5484 212.5 78.0001L212.5 74.6001L214.5 73.5001C214.5 73.5001 214.5 76.7427 214.5 78.5001C214.5 79.5001 225.946 80.0002 227 80.0002C229 80.0002 228.5 65.8501 228.5 65.8501L229.5 65.5002C229.5 65.5002 228.855 78.8549 230 80.0002C231.145 81.1455 240.5 82.4999 241.5 81.5C242.5 80.5001 242.5 66.5004 242.5 64.5002C242.5 62.5 238.5 60.5 238.5 60.5L243.5 58.5C243.5 58.5 251.167 63.5939 253.5 68.5ZM244 63.5C242.5 64 242.6 81.5001 243 82.0002C243.4 82.5003 249.5 83.4999 250.5 83C251.5 82.5001 251.666 69 250.5 67.5001C249.334 66.0002 245.5 63 244 63.5Z" stroke="#378350"/>
</g>
<g filter="url(#filter2_d_35_525)">
<path d="M173.5 101.501C174.5 101.289 160.5 107 165.5 127.519C166.871 133.144 168.67 139.02 173 142.5C167.5 142.5 166 143 160.5 142.296C155.197 140.968 151.055 137.097 148 131.019H162C164.387 129.836 157 105 173.5 101.501Z" fill="#223260"/>
<path d="M173.5 101.501C174.5 101.289 160.5 107 165.5 127.519C166.871 133.144 168.67 139.02 173 142.5C167.5 142.5 166 143 160.5 142.296C155.197 140.968 151.055 137.097 148 131.019H162C164.387 129.836 157 105 173.5 101.501Z" stroke="#223260"/>
</g>
<g filter="url(#filter3_d_35_525)">
<path d="M239.5 107.5C240.061 107.29 232.662 112.494 235.597 123.956C236.402 127.098 237.458 130.38 240 132.324C236.771 132.324 235.891 132.603 232.662 132.21C229.549 131.468 227.117 129.815 225.324 126.42L233.542 125.911C234.944 125.25 231.5 110.5 239.5 107.5Z" fill="#223260"/>
<path d="M239.5 107.5C240.061 107.29 232.662 112.494 235.597 123.956C236.402 127.098 237.458 130.38 240 132.324C236.771 132.324 235.891 132.603 232.662 132.21C229.549 131.468 227.117 129.815 225.324 126.42L233.542 125.911C234.944 125.25 231.5 110.5 239.5 107.5Z" stroke="#223260"/>
</g>
<g filter="url(#filter4_d_35_525)">
<path d="M82.3096 133.778C82.3096 133.778 88.5865 134.87 97.7813 135.278C110.664 135.848 113.318 135.582 113.318 135.582C114.473 140.577 109.489 144.615 107.989 144.63L94.4877 144.542C87.779 143.605 83.1045 140.047 82.3096 133.778Z" fill="#378350"/>
<path d="M82.3096 133.778C82.3096 133.778 88.5865 134.87 97.7813 135.278C110.664 135.848 113.318 135.582 113.318 135.582C114.473 140.577 109.489 144.615 107.989 144.63L94.4877 144.542C87.779 143.605 83.1045 140.047 82.3096 133.778Z" stroke="#378350"/>
</g>
<g filter="url(#filter5_d_35_525)">
<path d="M190.575 129.1L206.64 128.336C207.507 130.845 205.161 133.196 204.39 133.286L197.433 133.978C195.548 133.915 193.924 133.43 192.709 132.5C191.665 131.701 190.923 130.572 190.575 129.1Z" fill="#378350"/>
<path d="M190.575 129.1L206.64 128.336C207.507 130.845 205.161 133.196 204.39 133.286L197.433 133.978C195.548 133.915 193.924 133.43 192.709 132.5C191.665 131.701 190.923 130.572 190.575 129.1Z" stroke="#378350"/>
</g>
</g>
<defs>
<filter id="filter0_d_35_525" x="34.8076" y="4.39941" width="229.263" height="152.229" filterUnits="userSpaceOnUse" color-interpolation-filters="sRGB">
<feFlood flood-opacity="0" result="BackgroundImageFix"/>
<feColorMatrix in="SourceAlpha" type="matrix" values="0 0 0 0 0 0 0 0 0 0 0 0 0 0 0 0 0 0 127 0" result="hardAlpha"/>
<feOffset dy="4"/>
<feGaussianBlur stdDeviation="10"/>
<feComposite in2="hardAlpha" operator="out"/>
<feColorMatrix type="matrix" values="0 0 0 0 0 0 0 0 0 0 0 0 0 0 0 0 0 0 0.6 0"/>
<feBlend mode="normal" in2="BackgroundImageFix" result="effect1_dropShadow_35_525"/>
<feBlend mode="normal" in="SourceGraphic" in2="effect1_dropShadow_35_525" result="shape"/>
</filter>
<filter id="filter1_d_35_525" x="127.336" y="41.9382" width="153.312" height="110.562" filterUnits="userSpaceOnUse" color-interpolation-filters="sRGB">
<feFlood flood-opacity="0" result="BackgroundImageFix"/>
<feColorMatrix in="SourceAlpha" type="matrix" values="0 0 0 0 0 0 0 0 0 0 0 0 0 0 0 0 0 0 127 0" result="hardAlpha"/>
<feOffset dy="4"/>
<feGaussianBlur stdDeviation="10"/>
<feComposite in2="hardAlpha" operator="out"/>
<feColorMatrix type="matrix" values="0 0 0 0 0 0 0 0 0 0 0 0 0 0 0 0 0 0 0.6 0"/>
<feBlend mode="normal" in2="BackgroundImageFix" result="effect1_dropShadow_35_525"/>
<feBlend mode="normal" in="SourceGraphic" in2="effect1_dropShadow_35_525" result="shape"/>
</filter>
<filter id="filter2_d_35_525" x="127.189" y="84.9958" width="67.231" height="82.176" filterUnits="userSpaceOnUse" color-interpolation-filters="sRGB">
<feFlood flood-opacity="0" result="BackgroundImageFix"/>
<feColorMatrix in="SourceAlpha" type="matrix" values="0 0 0 0 0 0 0 0 0 0 0 0 0 0 0 0 0 0 127 0" result="hardAlpha"/>
<feOffset dy="4"/>
<feGaussianBlur stdDeviation="10"/>
<feComposite in2="hardAlpha" operator="out"/>
<feColorMatrix type="matrix" values="0 0 0 0 0 0 0 0 0 0 0 0 0 0 0 0 0 0 0.6 0"/>
<feBlend mode="normal" in2="BackgroundImageFix" result="effect1_dropShadow_35_525"/>
<feBlend mode="normal" in="SourceGraphic" in2="effect1_dropShadow_35_525" result="shape"/>
</filter>
<filter id="filter3_d_35_525" x="204.52" y="90.9939" width="56.957" height="65.9258" filterUnits="userSpaceOnUse" color-interpolation-filters="sRGB">
<feFlood flood-opacity="0" result="BackgroundImageFix"/>
<feColorMatrix in="SourceAlpha" type="matrix" values="0 0 0 0 0 0 0 0 0 0 0 0 0 0 0 0 0 0 127 0" result="hardAlpha"/>
<feOffset dy="4"/>
<feGaussianBlur stdDeviation="10"/>
<feComposite in2="hardAlpha" operator="out"/>
<feColorMatrix type="matrix" values="0 0 0 0 0 0 0 0 0 0 0 0 0 0 0 0 0 0 0.6 0"/>
<feBlend mode="normal" in2="BackgroundImageFix" result="effect1_dropShadow_35_525"/>
<feBlend mode="normal" in="SourceGraphic" in2="effect1_dropShadow_35_525" result="shape"/>
</filter>
<filter id="filter4_d_35_525" x="61.7285" y="117.169" width="72.2622" height="51.9609" filterUnits="userSpaceOnUse" color-interpolation-filters="sRGB">
<feFlood flood-opacity="0" result="BackgroundImageFix"/>
<feColorMatrix in="SourceAlpha" type="matrix" values="0 0 0 0 0 0 0 0 0 0 0 0 0 0 0 0 0 0 127 0" result="hardAlpha"/>
<feOffset dy="4"/>
<feGaussianBlur stdDeviation="10"/>
<feComposite in2="hardAlpha" operator="out"/>
<feColorMatrix type="matrix" values="0 0 0 0 0 0 0 0 0 0 0 0 0 0 0 0 0 0 0.6 0"/>
<feBlend mode="normal" in2="BackgroundImageFix" result="effect1_dropShadow_35_525"/>
<feBlend mode="normal" in="SourceGraphic" in2="effect1_dropShadow_35_525" result="shape"/>
</filter>
<filter id="filter5_d_35_525" x="169.95" y="111.819" width="57.3794" height="46.6592" filterUnits="userSpaceOnUse" color-interpolation-filters="sRGB">
<feFlood flood-opacity="0" result="BackgroundImageFix"/>
<feColorMatrix in="SourceAlpha" type="matrix" values="0 0 0 0 0 0 0 0 0 0 0 0 0 0 0 0 0 0 127 0" result="hardAlpha"/>
<feOffset dy="4"/>
<feGaussianBlur stdDeviation="10"/>
<feComposite in2="hardAlpha" operator="out"/>
<feColorMatrix type="matrix" values="0 0 0 0 0 0 0 0 0 0 0 0 0 0 0 0 0 0 0.6 0"/>
<feBlend mode="normal" in2="BackgroundImageFix" result="effect1_dropShadow_35_525"/>
<feBlend mode="normal" in="SourceGraphic" in2="effect1_dropShadow_35_525" result="shape"/>
</filter>
<clipPath id="clip0_35_525">
<rect width="320" height="200" fill="white"/>
</clipPath>
</defs>
</svg>
