<?xml version="1.0" standalone="no"?>
<!DOCTYPE svg PUBLIC "-//W3C//DTD SVG 20010904//EN"
 "http://www.w3.org/TR/2001/REC-SVG-20010904/DTD/svg10.dtd">
<svg version="1.0" xmlns="http://www.w3.org/2000/svg"
 width="390.000000pt" height="280.000000pt" viewBox="0 0 390.000000 280.000000"
 preserveAspectRatio="xMidYMid meet">

<g transform="translate(0.000000,280.000000) scale(0.100000,-0.100000)"
fill="#000000" stroke="none">
<path d="M1765 2103 c-71 -10 -359 -78 -465 -110 -134 -40 -175 -68 -204 -135
l-20 -48 -56 0 c-31 0 -64 -6 -74 -13 -34 -25 -51 -189 -21 -201 29 -11 44 5
50 52 3 26 8 59 10 73 2 14 -1 31 -6 36 -17 17 6 25 46 17 19 -3 35 -10 35
-14 0 -5 -9 -46 -20 -92 -18 -79 -33 -182 -44 -314 -5 -61 -5 -62 24 -74 31
-13 90 -73 90 -91 0 -11 -72 -5 -106 8 -11 4 -14 -7 -14 -45 0 -62 14 -96 47
-111 27 -12 604 -16 785 -5 l105 7 11 84 c18 135 75 218 148 216 77 -2 133
-89 137 -212 l2 -73 55 6 c30 3 118 8 195 11 188 8 185 7 185 53 0 80 40 152
85 152 40 0 75 -66 75 -143 0 -39 0 -39 32 -33 66 13 73 30 70 178 -5 234 -25
393 -55 416 -23 18 -456 208 -667 292 -281 112 -335 126 -435 113z m204 -126
c52 -17 99 -39 104 -48 7 -11 -7 -61 -54 -185 -72 -189 -97 -224 -201 -276
-63 -32 -83 -35 -92 -12 -8 20 11 226 30 323 7 41 12 76 10 79 -3 2 -21 4 -40
5 -35 1 -46 10 -26 22 5 3 49 -3 97 -15 83 -20 88 -20 100 -3 20 27 17 30 -47
42 -64 13 -66 15 -49 58 20 53 39 54 168 10z m-252 -33 c2 -6 -10 -14 -26 -17
-45 -9 -61 -43 -72 -153 -9 -103 -4 -124 32 -124 22 0 23 -7 8 -103 -14 -92
-21 -104 -67 -116 -86 -23 -271 -43 -414 -44 l-153 -2 2 65 c4 85 28 212 59
312 29 91 33 94 177 128 253 60 445 82 454 54z m561 -77 c14 -11 18 -282 3
-291 -5 -3 -57 1 -115 11 -76 11 -109 21 -115 32 -11 20 59 278 78 290 14 9
124 -22 149 -42z m127 -40 l60 -22 3 -134 3 -133 -51 7 c-28 4 -63 10 -78 14
l-27 7 -3 142 c-3 163 -9 156 93 119z m183 -67 l42 -19 0 -110 c0 -60 -4 -112
-9 -115 -4 -3 -36 -1 -70 5 l-61 11 0 130 0 130 28 -7 c15 -3 46 -15 70 -25z
m145 -49 l27 -11 0 -106 0 -106 -52 7 c-29 4 -56 9 -60 12 -9 5 -11 217 -2
225 6 6 38 -1 87 -21z m86 -32 c39 -14 51 -41 51 -118 0 -68 -13 -84 -62 -79
l-33 3 -3 103 c-1 56 1 102 6 102 5 0 24 -5 41 -11z m-1153 -373 c10 -25 -26
-84 -59 -99 -18 -8 -60 -18 -94 -21 -59 -7 -63 -6 -63 13 0 24 46 61 120 95
62 29 88 32 96 12z"/>
<path d="M2041 1274 c-38 -31 -61 -104 -61 -190 l0 -61 -37 -7 c-21 -3 -50 -6
-65 -6 -25 0 -26 -2 -17 -29 20 -57 56 -79 144 -86 l80 -7 -22 23 c-36 39 -55
97 -55 169 0 91 17 147 57 187 39 39 20 45 -24 7z"/>
<path d="M2715 1230 c-10 -11 -22 -49 -28 -95 l-11 -75 -43 0 c-24 0 -43 -3
-43 -7 0 -5 9 -23 20 -40 18 -31 24 -33 74 -33 l54 0 -20 38 c-27 52 -22 158
10 202 25 33 15 41 -13 10z"/>
<path d="M2273 1033 c-54 -3 -63 -7 -63 -23 0 -45 108 -53 142 -10 23 28 23
41 1 38 -10 -1 -46 -3 -80 -5z"/>
<path d="M1260 1002 c0 -14 34 -62 52 -74 32 -21 147 -29 185 -13 28 12 73 58
73 76 0 4 -70 9 -155 11 -85 2 -155 2 -155 0z"/>
<path d="M1732 90 c0 -25 2 -39 5 -32 3 9 9 10 18 2 9 -8 11 -5 7 15 -2 14 -8
23 -12 20 -5 -3 -11 5 -13 17 -2 13 -5 3 -5 -22z"/>
<path d="M2106 121 c-4 -5 3 -7 14 -4 26 7 25 -7 -1 -41 l-20 -26 28 1 c16 1
21 3 11 6 -16 4 -16 6 -2 28 9 13 13 29 9 35 -8 12 -32 13 -39 1z"/>
<path d="M2178 123 c26 -5 26 -6 7 -43 -9 -17 -13 -30 -11 -30 7 0 36 56 36
70 0 5 -12 9 -27 9 -24 -2 -25 -2 -5 -6z"/>
<path d="M2236 122 c-2 -4 4 -8 15 -8 10 0 19 4 19 8 0 10 -27 10 -34 0z"/>
<path d="M2294 116 c-11 -28 0 -61 21 -61 16 0 20 7 20 35 0 25 -5 36 -18 38
-9 2 -20 -3 -23 -12z m36 -26 c0 -20 -5 -30 -15 -30 -10 0 -15 10 -15 30 0 20
5 30 15 30 10 0 15 -10 15 -30z"/>
<path d="M2373 123 c21 -5 21 -7 2 -43 -9 -17 -13 -30 -10 -30 2 0 14 18 25
40 l20 40 -27 -1 c-17 -1 -21 -3 -10 -6z"/>
<path d="M2426 121 c-3 -5 2 -7 12 -4 15 4 19 -1 19 -27 0 -26 -4 -31 -20 -26
-14 3 -17 2 -9 -6 19 -19 40 -1 38 34 -2 32 -27 51 -40 29z"/>
<path d="M2490 120 c0 -5 7 -7 15 -4 22 9 18 -16 -7 -43 l-21 -23 29 1 c18 1
22 3 11 6 -17 4 -18 6 -2 24 10 10 15 25 12 34 -7 16 -37 21 -37 5z"/>
<path d="M2556 122 c-2 -4 4 -8 15 -8 10 0 19 4 19 8 0 4 -6 8 -14 8 -8 0 -17
-4 -20 -8z"/>
<path d="M2620 121 c0 -5 9 -7 20 -4 11 3 20 7 20 9 0 2 -9 4 -20 4 -11 0 -20
-4 -20 -9z"/>
<path d="M2680 110 c0 -11 7 -20 15 -20 21 0 19 -28 -2 -33 -17 -4 -17 -5 0
-6 25 -1 34 29 14 44 -22 16 -21 22 1 28 13 4 11 5 -5 6 -17 1 -23 -5 -23 -19z"/>
<path d="M1351 88 c-1 -30 3 -38 17 -38 11 0 13 3 5 8 -6 4 -13 21 -16 37 -4
27 -4 27 -6 -7z"/>
<path d="M1391 88 c-1 -30 3 -38 17 -38 11 0 13 3 5 8 -6 4 -13 21 -16 37 -4
27 -4 27 -6 -7z"/>
<path d="M1578 115 c-7 -7 3 -65 11 -65 4 0 5 16 3 35 -4 36 -5 38 -14 30z"/>
<path d="M1185 100 c-4 -6 -2 -17 5 -24 8 -11 8 -15 -2 -19 -8 -4 -7 -6 5 -6
9 -1 17 6 17 14 0 8 -5 15 -11 15 -6 0 -9 7 -5 15 6 17 0 20 -9 5z"/>
<path d="M1259 78 c4 -28 6 -29 9 -9 2 13 0 27 -5 32 -6 6 -7 -3 -4 -23z"/>
<path d="M1620 95 c-7 -8 -9 -22 -6 -31 8 -22 41 -13 42 11 1 15 0 16 -3 3 -5
-21 -33 -24 -33 -5 0 7 5 18 12 25 7 7 9 12 6 12 -3 0 -11 -7 -18 -15z"/>
<path d="M1681 96 c-14 -17 -4 -46 17 -46 13 0 12 3 -3 14 -16 12 -17 16 -6
30 7 9 11 16 8 16 -2 0 -10 -6 -16 -14z"/>
<path d="M1872 101 c-20 -12 -10 -46 13 -46 13 0 20 7 21 20 1 15 0 16 -3 3
-5 -21 -33 -24 -33 -5 0 7 5 18 12 25 14 14 9 15 -10 3z"/>
<path d="M1989 78 c4 -28 6 -29 9 -9 2 13 0 27 -5 32 -6 6 -7 -3 -4 -23z"/>
<path d="M1291 78 c-1 -22 4 -28 19 -28 15 0 20 6 19 28 -2 23 -2 24 -6 5 -2
-13 -8 -23 -13 -23 -5 0 -11 10 -13 23 -4 19 -4 18 -6 -5z"/>
<path d="M1434 75 c1 -12 9 -21 21 -22 14 -1 15 0 3 3 -9 3 -19 13 -21 22 -3
12 -4 11 -3 -3z"/>
<path d="M1492 75 c0 -16 2 -22 5 -12 2 9 2 23 0 30 -3 6 -5 -1 -5 -18z"/>
<path d="M1533 82 c12 -13 14 -22 7 -25 -6 -3 -6 -5 2 -3 21 4 19 21 -4 35
-23 14 -23 13 -5 -7z"/>
<path d="M1814 75 c1 -12 9 -21 21 -22 14 -1 15 0 3 3 -9 3 -19 13 -21 22 -3
12 -4 11 -3 -3z"/>
<path d="M1958 75 c6 -32 12 -32 12 0 0 14 -4 25 -9 25 -4 0 -6 -11 -3 -25z"/>
<path d="M2262 85 c2 -14 -2 -20 -14 -19 -10 1 -15 -2 -12 -7 7 -12 31 -11 39
1 3 5 1 18 -5 27 -10 17 -10 16 -8 -2z"/>
<path d="M2567 82 c-24 -26 -21 -32 11 -31 24 2 25 2 4 6 -23 4 -23 5 -6 24 9
10 15 19 12 19 -3 0 -12 -8 -21 -18z"/>
<path d="M2628 93 c27 -6 29 -30 2 -36 -17 -4 -16 -4 2 -3 34 2 32 40 -2 43
-22 1 -22 1 -2 -4z"/>
</g>
</svg>
